<svg xmlns="http://www.w3.org/2000/svg" viewBox="0 0 1440 300" preserveAspectRatio="none">
  <defs>
    <radialGradient id="glow" cx="48%" cy="100%" r="75%" fx="48%" fy="100%">
      <stop offset="0%"   stop-color="#ff44cc" stop-opacity="0.15"/>
      <stop offset="50%"  stop-color="#4400aa" stop-opacity="0.06"/>
      <stop offset="100%" stop-color="#050012"  stop-opacity="0"/>
    </radialGradient>
    <linearGradient id="fade" x1="0" y1="0" x2="0" y2="1">
      <stop offset="0%"   stop-color="white" stop-opacity="0"/>
      <stop offset="40%"  stop-color="white" stop-opacity="0.5"/>
      <stop offset="65%"  stop-color="white" stop-opacity="1"/>
      <stop offset="100%" stop-color="white" stop-opacity="1"/>
    </linearGradient>
    <mask id="m">
      <rect width="1440" height="300" fill="url(#fade)"/>
    </mask>
  </defs>

  <g mask="url(#m)">
    <!--
      Rocky Mountain range silhouette — rises from eastern foothills (left),
      peaks in the central massif, descends to western slopes (right).
      Single polygon tracing the ridgeline. Lower y = taller peak.
      Absolute highest point: ~x=594, y=8.
    -->
    <polygon fill="#050012" points="
      0,300
      0,268   18,260  35,264  52,252  70,258  88,244  106,252 124,238 142,248
      158,232 174,242 190,228 205,238 220,222 235,232 250,215 265,225 280,208
      295,218 310,200 325,212 340,192 355,205 368,185 380,198

      390,178 400,162 410,172 420,150 428,162 436,138 444,152 452,128 458,145
      464,115 470,132 476,100 482,118 488,85  492,102 496,72  500,88  504,60
      507,78  510,48  513,65  516,40  519,58  522,36  524,55  526,32  528,52
      530,28  532,48  534,38  536,55  538,42  540,60  542,50  545,68  548,55
      552,72  556,58  558,42  560,55  562,38  564,52  566,35  568,48  570,30
      572,45  574,22  576,38  578,18  580,32  582,15  584,28  586,12  588,25
      590,10  592,22  594,8   596,20  598,12  600,28  602,15  604,32  606,18
      608,35  610,22  612,40  615,25  618,45  622,30  626,52  630,38  635,58
      640,42  645,65  650,48  655,72  660,55  665,78  670,60  675,85  682,68
      688,92  695,75  702,98  710,80  718,105 725,88

      732,112 738,92  744,118 750,98  756,125 762,105 768,130 774,110 780,138
      786,115 792,142 798,122 804,148 812,128 820,155 828,135 836,162 845,142
      855,168 865,148 875,172

      885,155 895,178 906,162 917,185 929,170 941,195 953,180 965,205
      977,190 990,212 1003,198 1016,220 1030,208 1044,228 1060,215 1076,235
      1092,222 1108,240 1125,228 1142,245

      1160,235 1178,250 1196,240 1215,255 1235,244 1256,260 1278,250
      1302,265 1328,255 1355,268 1385,262 1415,270 1440,272
      1440,300
    "/>

    <rect width="1440" height="300" fill="url(#glow)"/>
  </g>
</svg>
